<svg width="406" height="80" viewBox="0 0 406 80" fill="none" xmlns="http://www.w3.org/2000/svg">
<path d="M390.112 38.4217H380.563V33.2921H405.662V38.4217H396.114V62.2142H390.112V38.4217Z" fill="#1E1E1E"/>
<path d="M350.258 33.2918H355.823V38.1485C356.696 36.475 357.987 35.1472 359.697 34.1649C361.443 33.1827 363.407 32.6915 365.59 32.6915C369.373 32.6915 372.355 33.8739 374.538 36.2386C376.72 38.6033 377.812 42.1685 377.812 46.9343V48.0257C377.812 50.4995 377.521 52.6641 376.939 54.5195C376.357 56.3749 375.52 57.921 374.429 59.1579C373.374 60.3585 372.101 61.268 370.609 61.8864C369.118 62.5049 367.445 62.8141 365.59 62.8141C363.516 62.8141 361.625 62.3594 359.915 61.4499C358.206 60.5404 356.987 59.2671 356.259 57.63V73.1278H350.258V33.2918ZM364.171 57.5754C366.426 57.5754 368.245 56.7932 369.627 55.2289C371.01 53.6646 371.701 51.2635 371.701 48.0257V46.9343C371.701 43.8784 371.028 41.6228 369.682 40.1676C368.336 38.676 366.499 37.9302 364.171 37.9302C363.153 37.9302 362.17 38.094 361.225 38.4214C360.279 38.7488 359.424 39.2399 358.66 39.8948C357.933 40.5132 357.351 41.3136 356.914 42.2958C356.478 43.2417 356.259 44.3331 356.259 45.57V49.3899C356.259 50.7724 356.478 51.9729 356.914 52.9915C357.351 54.0102 357.933 54.8651 358.66 55.5563C359.388 56.2475 360.224 56.7569 361.17 57.0843C362.116 57.4117 363.116 57.5754 364.171 57.5754Z" fill="#1E1E1E"/>
<path d="M330.095 62.8141C328.094 62.8141 326.221 62.5049 324.475 61.8864C322.765 61.2316 321.274 60.2857 320.001 59.0488C318.728 57.8119 317.727 56.2839 317 54.4649C316.272 52.6096 315.908 50.4631 315.908 48.0257V46.9343C315.908 44.6423 316.272 42.6233 317 40.877C317.727 39.0944 318.728 37.6028 320.001 36.4023C321.274 35.1654 322.765 34.2377 324.475 33.6192C326.221 33.0008 328.094 32.6915 330.095 32.6915C332.095 32.6915 333.95 33.0008 335.66 33.6192C337.406 34.2377 338.916 35.1654 340.189 36.4023C341.462 37.6028 342.462 39.0944 343.19 40.877C343.917 42.6233 344.281 44.6423 344.281 46.9343V48.0257C344.281 50.4631 343.917 52.6096 343.19 54.4649C342.462 56.2839 341.462 57.8119 340.189 59.0488C338.916 60.2857 337.406 61.2316 335.66 61.8864C333.95 62.5049 332.095 62.8141 330.095 62.8141ZM330.095 57.5754C331.15 57.5754 332.15 57.3935 333.096 57.0297C334.078 56.6659 334.933 56.102 335.66 55.3381C336.424 54.5741 337.024 53.5918 337.461 52.3913C337.934 51.1907 338.17 49.7355 338.17 48.0257V46.9343C338.17 45.3699 337.934 44.0239 337.461 42.8961C337.024 41.7683 336.424 40.8406 335.66 40.113C334.933 39.3854 334.078 38.8397 333.096 38.4759C332.15 38.1121 331.15 37.9302 330.095 37.9302C329.04 37.9302 328.021 38.1121 327.039 38.4759C326.093 38.8397 325.239 39.3854 324.475 40.113C323.747 40.8406 323.147 41.7683 322.674 42.8961C322.238 44.0239 322.019 45.3699 322.019 46.9343V48.0257C322.019 49.7355 322.238 51.1907 322.674 52.3913C323.147 53.5918 323.747 54.5741 324.475 55.3381C325.239 56.102 326.093 56.6659 327.039 57.0297C328.021 57.3935 329.04 57.5754 330.095 57.5754Z" fill="#1E1E1E"/>
<path d="M277.718 24.015H308.819V62.214H302.271V29.6903H284.266V62.214H277.718V24.015Z" fill="#1E1E1E"/>
<path d="M258.368 62.8141C256.404 62.8141 254.585 62.5231 252.912 61.941C251.275 61.3226 249.838 60.3949 248.601 59.1579C247.401 57.921 246.455 56.3749 245.764 54.5195C245.073 52.6641 244.728 50.4995 244.728 48.0257V46.9343C244.728 44.606 245.091 42.5505 245.819 40.7679C246.546 38.9853 247.528 37.4937 248.765 36.2931C250.038 35.0926 251.493 34.2013 253.13 33.6192C254.803 33.0008 256.549 32.6915 258.368 32.6915C260.26 32.6915 261.933 32.9462 263.388 33.4555C264.879 33.9648 266.134 34.6742 267.153 35.5837C268.208 36.4569 269.044 37.4937 269.663 38.6942C270.281 39.8948 270.699 41.1862 270.918 42.5687H264.807C264.443 41.2226 263.788 40.113 262.842 39.2399C261.897 38.3668 260.405 37.9302 258.368 37.9302C257.35 37.9302 256.386 38.1121 255.476 38.4759C254.567 38.8034 253.767 39.3309 253.076 40.0585C252.384 40.7861 251.839 41.7319 251.439 42.8961C251.039 44.0239 250.839 45.3699 250.839 46.9343V48.0257C250.839 49.7355 251.039 51.2089 251.439 52.4458C251.839 53.6464 252.384 54.6286 253.076 55.3926C253.767 56.1566 254.567 56.7205 255.476 57.0843C256.386 57.4117 257.35 57.5754 258.368 57.5754C261.751 57.5754 263.897 56.0293 264.807 52.937H270.918C270.627 54.4649 270.117 55.8474 269.39 57.0843C268.699 58.2848 267.808 59.3217 266.716 60.1948C265.625 61.0315 264.37 61.6864 262.951 62.1593C261.533 62.5959 260.005 62.8141 258.368 62.8141Z" fill="#1E1E1E"/>
<path d="M213.065 33.2919H219.067V53.7556L232.98 33.2919H238.709V62.214H232.707V41.7503L218.794 62.214H213.065V33.2919ZM225.887 30.0177C222.868 30.0177 220.649 29.3629 219.23 28.0532C217.848 26.7071 217.157 24.8154 217.157 22.3779H222.722C222.722 23.6876 222.977 24.6335 223.486 25.2156C224.032 25.7976 224.832 26.0887 225.887 26.0887C226.942 26.0887 227.724 25.7976 228.233 25.2156C228.779 24.6335 229.052 23.6876 229.052 22.3779H234.617C234.617 24.8154 233.908 26.7071 232.489 28.0532C231.07 29.3629 228.87 30.0177 225.887 30.0177Z" fill="#1E1E1E"/>
<path d="M190.407 62.8141C188.843 62.8141 187.443 62.5959 186.206 62.1593C185.006 61.6864 183.987 61.0497 183.15 60.2493C182.314 59.4126 181.677 58.4485 181.241 57.3571C180.804 56.2657 180.586 55.0652 180.586 53.7555C180.586 50.8815 181.441 48.7533 183.15 47.3708C184.86 45.952 187.37 45.2426 190.68 45.2426H199.683V43.6601C199.683 41.4773 199.192 39.9857 198.21 39.1853C197.264 38.3486 195.754 37.9302 193.681 37.9302C191.826 37.9302 190.462 38.2213 189.589 38.8034C188.716 39.3854 188.207 40.1858 188.061 41.2044H182.223C182.296 39.9675 182.605 38.8397 183.15 37.8211C183.732 36.7661 184.514 35.8566 185.497 35.0926C186.515 34.3286 187.734 33.7465 189.152 33.3464C190.571 32.9098 192.171 32.6915 193.954 32.6915C195.736 32.6915 197.337 32.8916 198.755 33.2918C200.21 33.692 201.447 34.3286 202.466 35.2017C203.484 36.0385 204.266 37.1299 204.812 38.4759C205.394 39.822 205.685 41.4409 205.685 43.3327V54.8469C205.685 56.3749 205.703 57.7209 205.739 58.8851C205.776 60.0129 205.867 61.1225 206.012 62.2139H200.556C200.447 61.3771 200.356 60.6677 200.283 60.0856C200.247 59.5036 200.228 58.776 200.228 57.9028C199.537 59.2489 198.337 60.4131 196.627 61.3953C194.954 62.3412 192.881 62.8141 190.407 62.8141ZM192.044 57.5754C193.063 57.5754 194.027 57.4481 194.936 57.1934C195.882 56.9024 196.7 56.5022 197.391 55.9929C198.082 55.4472 198.628 54.7924 199.028 54.0284C199.465 53.228 199.683 52.3185 199.683 51.2999V49.7173H191.771C190.244 49.7173 189.007 50.0448 188.061 50.6996C187.152 51.3544 186.697 52.3185 186.697 53.5918C186.697 54.7924 187.115 55.7564 187.952 56.484C188.825 57.2116 190.189 57.5754 192.044 57.5754Z" fill="#1E1E1E"/>
<path d="M148.383 33.2918H153.949V38.1485C154.822 36.475 156.113 35.1472 157.823 34.1649C159.569 33.1827 161.533 32.6915 163.715 32.6915C167.498 32.6915 170.481 33.8739 172.664 36.2386C174.846 38.6033 175.937 42.1685 175.937 46.9343V48.0257C175.937 50.4995 175.646 52.6641 175.064 54.5195C174.482 56.3749 173.646 57.921 172.555 59.1579C171.5 60.3585 170.227 61.268 168.735 61.8864C167.244 62.5049 165.571 62.8141 163.715 62.8141C161.642 62.8141 159.751 62.3594 158.041 61.4499C156.331 60.5404 155.113 59.2671 154.385 57.63V73.1278H148.383V33.2918ZM162.297 57.5754C164.552 57.5754 166.371 56.7932 167.753 55.2289C169.135 53.6646 169.826 51.2635 169.826 48.0257V46.9343C169.826 43.8784 169.153 41.6228 167.808 40.1676C166.462 38.676 164.625 37.9302 162.297 37.9302C161.278 37.9302 160.296 38.094 159.35 38.4214C158.405 38.7488 157.55 39.2399 156.786 39.8948C156.058 40.5132 155.476 41.3136 155.04 42.2958C154.603 43.2417 154.385 44.3331 154.385 45.57V49.3899C154.385 50.7724 154.603 51.9729 155.04 52.9915C155.476 54.0102 156.058 54.8651 156.786 55.5563C157.513 56.2475 158.35 56.7569 159.296 57.0843C160.242 57.4117 161.242 57.5754 162.297 57.5754Z" fill="#1E1E1E"/>
<path d="M108.557 24.015H139.658V62.214H133.11V29.6903H115.104V62.214H108.557V24.015Z" fill="#1E1E1E"/>
<g clip-path="url(#clip0_518_172)">
<path d="M0 32C0 20.799 0 15.1984 2.17987 10.9202C4.09734 7.15695 7.15695 4.09734 10.9202 2.17987C15.1984 0 20.799 0 32 0H48C59.201 0 64.8016 0 69.0798 2.17987C72.8431 4.09734 75.9027 7.15695 77.8201 10.9202C80 15.1984 80 20.799 80 32V48C80 59.201 80 64.8016 77.8201 69.0798C75.9027 72.8431 72.8431 75.9027 69.0798 77.8201C64.8016 80 59.201 80 48 80H32C20.799 80 15.1984 80 10.9202 77.8201C7.15695 75.9027 4.09734 72.8431 2.17987 69.0798C0 64.8016 0 59.201 0 48V32Z" fill="#1E1E1E"/>
<path d="M24.8039 39.0608L16.6951 46.1931L31.4147 62.9327L39.5236 55.8004L24.8039 39.0608Z" fill="url(#paint0_linear_518_172)"/>
<path d="M46.0443 27.0648L36.4807 32.0801L52.6555 62.9318L62.219 57.9165L46.0443 27.0648Z" fill="url(#paint1_linear_518_172)"/>
<path d="M12.9356 48.6733C13.559 42.7413 18.8725 38.4379 24.8037 39.0613L22.7965 58.1614C22.4848 61.1274 19.828 63.2791 16.8624 62.9674C13.8968 62.6556 11.7454 59.9985 12.0571 57.0325L12.9356 48.6733Z" fill="url(#paint2_linear_518_172)"/>
<path d="M57.1883 19.8406C57.5 16.8746 60.1568 14.7229 63.1224 15.0347C66.088 15.3464 68.2394 18.0035 67.9277 20.9695L64.5274 53.3261C63.904 59.2581 58.5904 63.5616 52.6592 62.9381L57.1883 19.8406Z" fill="url(#paint3_linear_518_172)"/>
<path d="M34.1759 36.678C34.7993 30.746 40.1128 26.4426 46.044 27.0661L43.2845 53.3253C42.6611 59.2573 37.3475 63.5607 31.4163 62.9372L34.1759 36.678Z" fill="url(#paint4_linear_518_172)"/>
</g>
<defs>
<linearGradient id="paint0_linear_518_172" x1="39.6884" y1="28.9179" x2="57.5348" y2="60.3687" gradientUnits="userSpaceOnUse">
<stop stop-color="#0B9239"/>
<stop offset="0.325" stop-color="#0DAF44"/>
</linearGradient>
<linearGradient id="paint1_linear_518_172" x1="39.6884" y1="28.9179" x2="57.5348" y2="60.3687" gradientUnits="userSpaceOnUse">
<stop stop-color="#0B9239"/>
<stop offset="0.325" stop-color="#0DAF44"/>
</linearGradient>
<linearGradient id="paint2_linear_518_172" x1="39.9924" y1="15.0046" x2="39.9924" y2="62.9981" gradientUnits="userSpaceOnUse">
<stop stop-color="#78E75A"/>
<stop offset="1" stop-color="#A1FF88"/>
</linearGradient>
<linearGradient id="paint3_linear_518_172" x1="39.9924" y1="15.0046" x2="39.9924" y2="62.9981" gradientUnits="userSpaceOnUse">
<stop stop-color="#78E75A"/>
<stop offset="1" stop-color="#A1FF88"/>
</linearGradient>
<linearGradient id="paint4_linear_518_172" x1="39.9924" y1="15.0046" x2="39.9924" y2="62.9981" gradientUnits="userSpaceOnUse">
<stop stop-color="#78E75A"/>
<stop offset="1" stop-color="#A1FF88"/>
</linearGradient>
<clipPath id="clip0_518_172">
<rect width="79.9892" height="80" fill="white"/>
</clipPath>
</defs>
</svg>
