<svg width="30" height="30" viewBox="0 0 30 30" fill="none" xmlns="http://www.w3.org/2000/svg">
    <rect y="0.675415" width="29.445" height="28.6492" rx="8" fill="#1E1E1E"/>
    <path d="M9.54157 20.1899C8.11217 18.9829 7.99675 16.8098 9.29033 15.4595L12.0936 17.842C13.5197 19.054 13.6565 21.2175 12.3943 22.5987L9.54157 20.1899Z" fill="#0DAF44"/>
    <path d="M15.7489 16.3643C14.7618 14.7383 15.3609 12.6072 17.0502 11.7346L20.6502 17.8954C21.5918 19.5067 21.099 21.5821 19.5334 22.5986L15.7489 16.3643Z" fill="#0DAF44"/>
    <path d="M5.39926 18.5033C5.60104 16.5693 7.36478 15.1897 9.29055 15.4595L8.56548 21.5259C8.45319 22.4653 7.60772 23.1395 6.66683 23.0399C5.71587 22.9392 5.02541 22.0866 5.12464 21.1355L5.39926 18.5033Z" fill="#A1FF87"/>
    <path d="M13.0544 14.9642C13.2287 12.9478 15.0424 11.482 17.0505 11.7346L16.0204 19.7633C15.7921 21.5426 14.1765 22.806 12.3945 22.5986L13.0544 14.9642Z" fill="#A1FF87"/>
    <path d="M23.2171 19.4254C23.0223 21.2921 21.4083 22.6825 19.5335 22.5987L20.9139 8.48424C21.0065 7.53833 21.8512 6.84973 22.7963 6.94981C23.7372 7.04942 24.4203 7.89299 24.3221 8.83397L23.2171 19.4254Z" fill="#A1FF87"/>
</svg>
