<svg width="25" height="24" viewBox="0 0 25 24" fill="none" xmlns="http://www.w3.org/2000/svg">
    <g clip-path="url(#clip0_4006_1023)">
        <path d="M12.5 24C19.1274 24 24.5 18.6274 24.5 12C24.5 5.37258 19.1274 0 12.5 0C5.87258 0 0.5 5.37258 0.5 12C0.5 18.6274 5.87258 24 12.5 24Z" fill="#818181"/>
        <path fill-rule="evenodd" clip-rule="evenodd" d="M5.93201 11.8733C9.43026 10.3492 11.763 9.3444 12.9301 8.85893C16.2627 7.47282 16.9551 7.23203 17.4065 7.22408C17.5058 7.22234 17.7277 7.24694 17.8715 7.3636C17.9929 7.46211 18.0263 7.59518 18.0423 7.68857C18.0583 7.78197 18.0782 7.99473 18.0623 8.16097C17.8817 10.0585 17.1003 14.6631 16.7028 16.7884C16.5346 17.6876 16.2034 17.9891 15.8827 18.0186C15.1858 18.0828 14.6567 17.5581 13.9817 17.1157C12.9256 16.4233 12.3289 15.9924 11.3037 15.3168C10.119 14.536 10.887 14.1069 11.5622 13.4056C11.7389 13.2221 14.8093 10.4294 14.8687 10.176C14.8762 10.1443 14.8831 10.0262 14.8129 9.96385C14.7427 9.90148 14.6392 9.92281 14.5644 9.93977C14.4585 9.96381 12.7713 11.079 9.50276 13.2853C9.02385 13.6142 8.59007 13.7744 8.20141 13.766C7.77295 13.7568 6.94876 13.5238 6.33606 13.3246C5.58456 13.0803 4.98728 12.9512 5.03929 12.5363C5.06638 12.3202 5.36395 12.0992 5.93201 11.8733Z" fill="white"/>
    </g>
    <defs>
        <clipPath id="clip0_4006_1023">
            <rect width="24" height="24" fill="white" transform="translate(0.5)"/>
        </clipPath>
    </defs>
</svg>
