<svg width="25" height="24" viewBox="0 0 25 24" fill="none" xmlns="http://www.w3.org/2000/svg">
    <g clip-path="url(#clip0_4006_1024)">
        <path d="M0.5 11.52C0.5 6.0894 0.5 3.37413 2.18707 1.68707C3.87413 0 6.5894 0 12.02 0H12.98C18.4106 0 21.1259 0 22.813 1.68707C24.5 3.37413 24.5 6.0894 24.5 11.52V12.48C24.5 17.9106 24.5 20.6259 22.813 22.313C21.1259 24 18.4106 24 12.98 24H12.02C6.5894 24 3.87413 24 2.18707 22.313C0.5 20.6259 0.5 17.9106 0.5 12.48V11.52Z" fill="#626262"/>
        <path d="M13.2698 17.29C7.79976 17.29 4.6798 13.54 4.5498 7.30005H7.2898C7.3798 11.88 9.39976 13.82 10.9998 14.22V7.30005H13.5799V11.25C15.1599 11.08 16.8197 9.28005 17.3797 7.30005H19.9597C19.5297 9.74005 17.7297 11.54 16.4497 12.28C17.7297 12.88 19.7798 14.45 20.5598 17.29H17.7197C17.1097 15.39 15.5899 13.92 13.5799 13.72V17.29H13.2698Z" fill="white"/>
    </g>
    <defs>
        <clipPath id="clip0_4006_1024">
            <rect width="24" height="24" fill="white" transform="translate(0.5)"/>
        </clipPath>
    </defs>
</svg>
