<svg width="25" height="25" viewBox="0 0 25 25" fill="none" xmlns="http://www.w3.org/2000/svg">
    <path d="M5.83333 1.7474C5.83333 1.01102 6.43029 0.414062 7.16667 0.414062C7.90305 0.414062 8.5 1.01102 8.5 1.7474L8.5 19.8618L11.5572 16.8046C12.0779 16.2839 12.9221 16.2839 13.4428 16.8046C13.9635 17.3253 13.9635 18.1695 13.4428 18.6902L8.10947 24.0235C7.58878 24.5442 6.74456 24.5442 6.22386 24.0235L0.890524 18.6902C0.369825 18.1695 0.369825 17.3253 0.890524 16.8046C1.41122 16.2839 2.25544 16.2839 2.77614 16.8046L5.83333 19.8618L5.83333 1.7474Z" fill="#8E8E8E"/>
    <path d="M19.1667 23.0807C19.1667 23.8171 18.5697 24.4141 17.8333 24.4141C17.097 24.4141 16.5 23.8171 16.5 23.0807L16.5 4.96635L13.4428 8.02354C12.9221 8.54424 12.0779 8.54424 11.5572 8.02354C11.0365 7.50284 11.0365 6.65862 11.5572 6.13792L16.8905 0.804588C17.4112 0.283889 18.2554 0.283889 18.7761 0.804588L24.1095 6.13792C24.6302 6.65862 24.6302 7.50284 24.1095 8.02354C23.5888 8.54424 22.7446 8.54424 22.2239 8.02354L19.1667 4.96635L19.1667 23.0807Z" fill="#8E8E8E"/>
</svg>
